<svg xmlns="http://www.w3.org/2000/svg" width="39" height="41" viewBox="0 0 39 41">
<g>
<path d="M 0.00 20.50 L 0.00 0.00 L 19.50 0.00 L 39.00 0.00 L 39.00 20.50 L 39.00 41.00 L 19.50 41.00 L 0.00 41.00 L 0.00 20.50 ZM 25.49 33.75 C25.72,33.06 26.64,29.91 27.52,26.75 C29.02,21.43 29.36,21.00 32.07,21.00 C33.68,21.00 35.00,20.55 35.00,20.00 C35.00,19.45 33.23,19.00 31.08,19.00 C27.43,19.00 27.07,19.26 25.95,22.75 C25.28,24.81 24.49,26.92 24.20,27.43 C23.90,27.95 22.27,23.26 20.58,17.01 C17.74,6.55 15.68,2.84 14.55,6.17 C14.30,6.90 13.36,10.09 12.48,13.25 C10.98,18.57 10.64,19.00 7.93,19.00 C6.32,19.00 5.00,19.45 5.00,20.00 C5.00,20.55 6.78,21.00 8.96,21.00 C12.71,21.00 12.98,20.79 14.12,17.00 C14.78,14.80 15.63,13.00 16.02,13.00 C16.40,13.00 17.95,17.61 19.46,23.25 C20.97,28.89 22.41,33.84 22.66,34.25 C23.37,35.42 25.02,35.13 25.49,33.75 Z" fill="rgba(0,0,0,1)"/>
</g>
</svg>